<svg width="237" height="25" viewBox="0 0 237 25" fill="none" xmlns="http://www.w3.org/2000/svg">
<path d="M0.536 24.328L10.104 1.768C10.3173 1.32 10.6373 1.096 11.064 1.096H27.256C30.1787 1.096 31.64 1.94933 31.64 3.656C31.64 4.36 31.4373 5.16 31.032 6.056L28.376 12.36C27.864 13.576 27.1707 14.5467 26.296 15.272C25.4427 15.976 24.3653 16.4667 23.064 16.744L23.352 24.392C23.352 24.7973 23.1387 25 22.712 25H16.568C16.0987 25 15.864 24.7973 15.864 24.392L15.704 17H11.576L8.472 24.328C8.30133 24.776 7.98133 25 7.512 25H0.92C0.493333 25 0.365333 24.776 0.536 24.328ZM20.088 11.176C20.6853 11.176 21.1227 10.8453 21.4 10.184L21.976 8.808C22.0827 8.552 22.136 8.36 22.136 8.232C22.136 7.93333 21.9333 7.784 21.528 7.784H15.48L14.04 11.176H20.088ZM25.0545 24.392L29.5665 13.736H28.8305C28.4465 13.736 28.3292 13.5333 28.4785 13.128L30.6545 8.072C30.8038 7.66667 31.0918 7.464 31.5185 7.464H38.9745C39.3585 7.464 39.4758 7.66667 39.3265 8.072L32.3825 24.392C32.2332 24.7973 31.9452 25 31.5185 25H25.4065C25.0225 25 24.9052 24.7973 25.0545 24.392ZM33.2465 5.064L35.0705 0.807999C35.2198 0.402665 35.5078 0.199999 35.9345 0.199999H42.0465C42.4305 0.199999 42.5478 0.402665 42.3985 0.807999L40.5745 5.064C40.4252 5.46933 40.1372 5.672 39.7105 5.672H33.5985C33.2145 5.672 33.0972 5.46933 33.2465 5.064ZM34.9005 22.408C34.9005 21.6613 35.1032 20.8187 35.5085 19.88L38.5805 12.616C39.0072 11.6133 39.4338 10.792 39.8605 10.152C40.3085 9.49067 40.8098 8.95733 41.3645 8.552C41.9192 8.14667 42.5485 7.86933 43.2525 7.72C43.9778 7.54933 44.8312 7.464 45.8125 7.464H49.6525C49.8658 7.464 50.0472 7.48533 50.1965 7.528C50.3458 7.57067 50.5058 7.63467 50.6765 7.72L52.5965 8.84L56.0205 0.807999C56.1698 0.402665 56.4578 0.199999 56.8845 0.199999H62.9965C63.3805 0.199999 63.4978 0.402665 63.3485 0.807999L55.7325 18.728H56.2765C56.7032 18.728 56.8205 18.9307 56.6285 19.336L54.4845 24.392C54.3352 24.7973 54.0472 25 53.6205 25H50.2605C49.8552 25 49.5245 24.904 49.2685 24.712L46.9645 22.952L43.1885 24.712C42.7405 24.904 42.3245 25 41.9405 25H38.3565C36.0525 25 34.9005 24.136 34.9005 22.408ZM43.6365 18.376C43.6365 18.6107 43.7858 18.728 44.0845 18.728H48.4045L50.5165 13.736H46.1965C45.7272 13.736 45.3752 14.0347 45.1405 14.632L43.7645 17.832C43.6792 18.024 43.6365 18.2053 43.6365 18.376ZM56.195 22.408C56.195 21.7253 56.4083 20.872 56.835 19.848L59.715 13.096C60.2057 11.944 60.707 11.0053 61.219 10.28C61.7523 9.53333 62.3497 8.95733 63.011 8.552C63.6723 8.12533 64.4297 7.83733 65.283 7.688C66.1363 7.53867 67.139 7.464 68.291 7.464H75.715C77.187 7.464 78.2643 7.69867 78.947 8.168C79.6297 8.616 79.971 9.288 79.971 10.184C79.971 10.952 79.747 11.848 79.299 12.872L78.019 15.848C77.763 16.4667 77.4323 16.9147 77.027 17.192C76.643 17.4693 76.1417 17.608 75.523 17.608H65.219L65.091 17.864C64.9843 18.056 64.931 18.2373 64.931 18.408C64.931 18.6213 65.091 18.728 65.411 18.728H74.403C74.8297 18.728 74.947 18.9307 74.755 19.336L72.611 24.392C72.4617 24.7973 72.1737 25 71.747 25H59.971C58.6697 25 57.7097 24.7867 57.091 24.36C56.4937 23.912 56.195 23.2613 56.195 22.408ZM71.683 14.6L71.843 14.248C71.9497 14.0133 71.9603 13.8747 71.875 13.832C71.811 13.768 71.6297 13.736 71.331 13.736H67.523C67.2243 13.736 67.011 13.7893 66.883 13.896C66.7763 13.9813 66.6377 14.216 66.467 14.6H71.683ZM77.0297 21.992C77.0297 21.032 77.3284 19.8587 77.9258 18.472L82.5017 7.72C83.0564 6.39733 83.6004 5.30933 84.1337 4.456C84.6884 3.60267 85.2964 2.93067 85.9578 2.44C86.6191 1.928 87.3764 1.576 88.2298 1.384C89.1044 1.192 90.1498 1.096 91.3658 1.096H102.47C105.243 1.096 106.63 2.09867 106.63 4.104C106.63 5.10667 106.331 6.312 105.734 7.72L101.158 18.472C100.603 19.7733 100.059 20.8507 99.5258 21.704C98.9924 22.536 98.3951 23.1973 97.7338 23.688C97.0724 24.1787 96.3044 24.52 95.4298 24.712C94.5764 24.904 93.5417 25 92.3258 25H81.2218C78.4271 25 77.0297 23.9973 77.0297 21.992ZM86.8858 18.248H92.3898C92.9444 18.248 93.3604 17.9067 93.6378 17.224L97.2218 8.872C97.3284 8.59467 97.3818 8.392 97.3818 8.264C97.3818 7.98667 97.1898 7.848 96.8057 7.848H91.3018C90.7471 7.848 90.3311 8.18933 90.0538 8.872L86.4698 17.224C86.3631 17.5013 86.3098 17.704 86.3098 17.832C86.3098 18.1093 86.5018 18.248 86.8858 18.248ZM100.328 24.392L104.84 13.736H104.136C103.753 13.736 103.635 13.5333 103.785 13.128L105.961 8.072C106.11 7.66667 106.398 7.464 106.825 7.464H114.089C114.473 7.464 114.59 7.66667 114.441 8.072L114.057 8.936L118.249 7.656C118.697 7.528 119.123 7.464 119.529 7.464H120.937C122.537 7.464 123.699 7.69867 124.425 8.168C125.15 8.63733 125.513 9.384 125.513 10.408C125.513 11.3467 125.182 12.5947 124.521 14.152L120.201 24.328C120.009 24.776 119.689 25 119.241 25H113.193C112.745 25 112.617 24.776 112.809 24.328L116.937 14.632C117.022 14.44 117.065 14.2587 117.065 14.088C117.065 13.8533 116.905 13.736 116.585 13.736H112.233L107.72 24.392C107.571 24.7973 107.283 25 106.856 25H100.68C100.296 25 100.179 24.7973 100.328 24.392ZM133.203 24.328L135.507 18.92C135.678 18.472 135.998 18.248 136.467 18.248H149.235C149.811 18.248 150.249 17.8853 150.547 17.16L150.611 17.032C150.697 16.84 150.739 16.6587 150.739 16.488C150.739 16.2107 150.537 16.072 150.131 16.072H142.067C140.531 16.072 139.401 15.88 138.675 15.496C137.971 15.0907 137.619 14.472 137.619 13.64C137.619 13.064 137.779 12.392 138.099 11.624L140.531 5.896C140.958 4.91467 141.385 4.11467 141.811 3.496C142.238 2.87733 142.75 2.39733 143.347 2.056C143.945 1.69333 144.649 1.448 145.459 1.32C146.291 1.17067 147.305 1.096 148.499 1.096H163.347C163.667 1.096 163.827 1.192 163.827 1.384C163.827 1.46933 163.795 1.59733 163.731 1.768L161.459 7.112C161.289 7.56 160.969 7.784 160.499 7.784H148.659C148.083 7.784 147.657 8.12533 147.379 8.808L147.315 8.936C147.209 9.192 147.155 9.384 147.155 9.512C147.155 9.81067 147.358 9.96 147.763 9.96H156.147C158.921 9.96 160.307 10.7813 160.307 12.424C160.307 13.0427 160.115 13.8 159.731 14.696L157.203 20.616C156.841 21.4693 156.457 22.184 156.051 22.76C155.646 23.3147 155.155 23.7627 154.579 24.104C154.025 24.4453 153.363 24.68 152.595 24.808C151.849 24.936 150.931 25 149.843 25H133.587C133.161 25 133.033 24.776 133.203 24.328ZM158.972 22.568C158.972 22.0773 159.057 21.5333 159.228 20.936C159.42 20.3173 159.665 19.6347 159.964 18.888L162.14 13.736H161.148C160.764 13.736 160.647 13.5333 160.796 13.128L162.972 8.072C163.121 7.66667 163.409 7.464 163.836 7.464H164.828L167.26 1.704C167.452 1.29867 167.74 1.096 168.124 1.096H174.396C174.823 1.096 174.94 1.29867 174.748 1.704L172.316 7.464H175.932C176.359 7.464 176.476 7.66667 176.284 8.072L174.108 13.128C173.916 13.5333 173.628 13.736 173.244 13.736H169.628L167.9 17.832C167.793 18.088 167.74 18.28 167.74 18.408C167.74 18.6213 167.9 18.728 168.22 18.728H173.436C173.863 18.728 173.98 18.9307 173.788 19.336L171.644 24.392C171.495 24.7973 171.207 25 170.78 25H162.556C161.255 25 160.327 24.7973 159.772 24.392C159.239 23.9653 158.972 23.3573 158.972 22.568ZM173.473 21.896C173.473 21.1067 173.665 20.264 174.049 19.368L176.865 12.68C177.271 11.6987 177.697 10.8773 178.145 10.216C178.593 9.55467 179.095 9.02133 179.649 8.616C180.225 8.21067 180.876 7.92267 181.601 7.752C182.327 7.56 183.169 7.464 184.129 7.464H193.217C194.455 7.464 195.415 7.69867 196.097 8.168C196.78 8.63733 197.121 9.352 197.121 10.312C197.121 10.9947 196.929 11.784 196.545 12.68L193.729 19.368C193.303 20.392 192.833 21.2667 192.321 21.992C191.809 22.696 191.223 23.272 190.561 23.72C189.9 24.168 189.153 24.4987 188.321 24.712C187.489 24.904 186.54 25 185.473 25H176.737C175.628 25 174.807 24.712 174.273 24.136C173.74 23.5387 173.473 22.792 173.473 21.896ZM182.369 18.728H185.953C186.444 18.728 186.807 18.4293 187.041 17.832L188.417 14.632C188.503 14.44 188.545 14.2587 188.545 14.088C188.545 13.8533 188.385 13.736 188.065 13.736H184.481C183.991 13.736 183.628 14.0347 183.393 14.632L182.017 17.832C181.932 18.024 181.889 18.2053 181.889 18.376C181.889 18.6107 182.049 18.728 182.369 18.728ZM193.081 24.392L197.593 13.736H197.081C196.697 13.736 196.58 13.5333 196.729 13.128L198.905 8.072C199.055 7.66667 199.343 7.464 199.769 7.464H206.906C207.289 7.464 207.407 7.66667 207.257 8.072L206.873 8.936L209.625 7.752C210.052 7.56 210.468 7.464 210.874 7.464H213.978C214.98 7.464 215.716 7.61333 216.186 7.912C216.655 8.18933 216.889 8.648 216.889 9.288C216.889 9.84267 216.687 10.6107 216.281 11.592L213.498 18.152C213.348 18.5573 213.06 18.76 212.634 18.76H206.809C206.383 18.76 206.266 18.5573 206.458 18.152L207.962 14.632C208.068 14.376 208.122 14.1947 208.122 14.088C208.122 13.8533 207.951 13.736 207.61 13.736H205.017L200.505 24.392C200.356 24.7973 200.068 25 199.641 25H193.433C193.049 25 192.932 24.7973 193.081 24.392ZM213.088 22.408C213.088 21.7253 213.302 20.872 213.728 19.848L216.608 13.096C217.099 11.944 217.6 11.0053 218.112 10.28C218.646 9.53333 219.243 8.95733 219.904 8.552C220.566 8.12533 221.323 7.83733 222.176 7.688C223.03 7.53867 224.032 7.464 225.184 7.464H232.608C234.08 7.464 235.158 7.69867 235.84 8.168C236.523 8.616 236.864 9.288 236.864 10.184C236.864 10.952 236.64 11.848 236.192 12.872L234.912 15.848C234.656 16.4667 234.326 16.9147 233.92 17.192C233.536 17.4693 233.035 17.608 232.416 17.608H222.112L221.984 17.864C221.878 18.056 221.824 18.2373 221.824 18.408C221.824 18.6213 221.984 18.728 222.304 18.728H231.296C231.723 18.728 231.84 18.9307 231.648 19.336L229.504 24.392C229.355 24.7973 229.067 25 228.64 25H216.864C215.563 25 214.603 24.7867 213.984 24.36C213.387 23.912 213.088 23.2613 213.088 22.408ZM228.576 14.6L228.736 14.248C228.843 14.0133 228.854 13.8747 228.768 13.832C228.704 13.768 228.523 13.736 228.224 13.736H224.416C224.118 13.736 223.904 13.7893 223.776 13.896C223.67 13.9813 223.531 14.216 223.36 14.6H228.576Z" fill="#DC3644"/>
</svg>
