<svg width="15" height="16" viewBox="0 0 15 16" fill="none" xmlns="http://www.w3.org/2000/svg">
<path d="M10.3128 13.625H11.6683C12.4343 13.625 13.0202 12.9421 12.9037 12.1849L12.0383 6.55993C11.9445 5.95014 11.4198 5.5 10.8029 5.5H4.19769C3.58072 5.5 3.05604 5.95014 2.96222 6.55993L2.09684 12.1849C1.98034 12.9421 2.56619 13.625 3.3323 13.625H4.68779" stroke="black" stroke-linecap="round" stroke-linejoin="round"/>
<path d="M7.5 8V12.375M7.5 12.375L9.375 10.5M7.5 12.375L5.625 10.5" stroke="black" stroke-linecap="round" stroke-linejoin="round"/>
<path d="M8.75 3.625C8.75 2.93464 8.19037 2.375 7.5 2.375C6.80963 2.375 6.25 2.93464 6.25 3.625" stroke="black" stroke-linecap="round" stroke-linejoin="round"/>
</svg>
