<svg width="16" height="17" viewBox="0 0 16 17" fill="none" xmlns="http://www.w3.org/2000/svg">
<path d="M7.73332 0.692235C7.89981 0.602588 8.10019 0.602588 8.26668 0.692235L15.5792 4.62973C15.7614 4.72784 15.875 4.91807 15.875 5.125C15.875 5.33193 15.7614 5.52216 15.5792 5.62027L8.26668 9.55777C8.10019 9.64741 7.89981 9.64741 7.73332 9.55777L0.420819 5.62027C0.23862 5.52216 0.125 5.33193 0.125 5.125C0.125 4.91807 0.23862 4.72784 0.420819 4.62973L7.73332 0.692235Z" fill="#0F172A"/>
<path d="M1.44851 7.45135L7.19996 10.5483C7.69942 10.8172 8.30058 10.8172 8.80004 10.5483L14.5515 7.45135L15.5792 8.00473C15.7614 8.10283 15.875 8.29306 15.875 8.49999C15.875 8.70693 15.7614 8.89715 15.5792 8.99526L8.26668 12.9328C8.10019 13.0224 7.89981 13.0224 7.73332 12.9328L0.420819 8.99526C0.23862 8.89715 0.125 8.70693 0.125 8.49999C0.125 8.29306 0.23862 8.10283 0.420819 8.00473L1.44851 7.45135Z" fill="#0F172A"/>
<path d="M7.19996 13.9233L1.44851 10.8264L0.420819 11.3797C0.23862 11.4778 0.125 11.6681 0.125 11.875C0.125 12.0819 0.23862 12.2722 0.420819 12.3703L7.73332 16.3078C7.89981 16.3974 8.10019 16.3974 8.26668 16.3078L15.5792 12.3703C15.7614 12.2722 15.875 12.0819 15.875 11.875C15.875 11.6681 15.7614 11.4778 15.5792 11.3797L14.5515 10.8264L8.80004 13.9233C8.30058 14.1922 7.69942 14.1922 7.19996 13.9233Z" fill="#0F172A"/>
</svg>
