<svg width="18" height="19" viewBox="0 0 18 19" fill="none" xmlns="http://www.w3.org/2000/svg">
<path d="M8.73332 1.69224C8.89981 1.60259 9.10019 1.60259 9.26668 1.69224L16.5792 5.62973C16.7614 5.72784 16.875 5.91807 16.875 6.125C16.875 6.33193 16.7614 6.52216 16.5792 6.62027L9.26668 10.5578C9.10019 10.6474 8.89981 10.6474 8.73332 10.5578L1.42082 6.62027C1.23862 6.52216 1.125 6.33193 1.125 6.125C1.125 5.91807 1.23862 5.72784 1.42082 5.62973L8.73332 1.69224Z" fill="#FEFEFE"/>
<path d="M2.44851 8.45135L8.19996 11.5483C8.69942 11.8172 9.30058 11.8172 9.80004 11.5483L15.5515 8.45135L16.5792 9.00473C16.7614 9.10283 16.875 9.29306 16.875 9.49999C16.875 9.70693 16.7614 9.89715 16.5792 9.99526L9.26668 13.9328C9.10019 14.0224 8.89981 14.0224 8.73332 13.9328L1.42082 9.99526C1.23862 9.89715 1.125 9.70693 1.125 9.49999C1.125 9.29306 1.23862 9.10283 1.42082 9.00473L2.44851 8.45135Z" fill="#FEFEFE"/>
<path d="M8.19996 14.9233L2.44851 11.8264L1.42082 12.3797C1.23862 12.4778 1.125 12.6681 1.125 12.875C1.125 13.0819 1.23862 13.2722 1.42082 13.3703L8.73332 17.3078C8.89981 17.3974 9.10019 17.3974 9.26668 17.3078L16.5792 13.3703C16.7614 13.2722 16.875 13.0819 16.875 12.875C16.875 12.6681 16.7614 12.4778 16.5792 12.3797L15.5515 11.8264L9.80004 14.9233C9.30058 15.1922 8.69942 15.1922 8.19996 14.9233Z" fill="#FEFEFE"/>
</svg>
